<mxfile host="app.diagrams.net" modified="2023-10-19T06:02:53.687Z" agent="Mozilla/5.0 (Windows NT 10.0; Win64; x64) AppleWebKit/537.36 (KHTML, like Gecko) Chrome/118.0.0.0 Safari/537.36" version="22.0.4" etag="8-z8cSBDgwHOMUlLd0LJ" type="github">
  <diagram name="第 1 页" id="j67c_g9-zIJzqB89LqnS">
    <mxGraphModel>
      <root>
        <mxCell id="0" />
        <mxCell id="1" parent="0" />
      </root>
    </mxGraphModel>
  </diagram>
</mxfile>
